REM DIRINDEX 1\2,1\3,1\4
REM DIRNAME folder01,folder02,folder03,folder04
TITLE ""
FILE "DISC3Track06.mp3" MP3
  TRACK 01 AUDIO
    TITLE "0:"
    INDEX 01 00:00:00
  TRACK 02 AUDIO
    TITLE "4:cjc105_4491"
    INDEX 01 00:00:15
  TRACK 03 AUDIO
    TITLE "0:"
    INDEX 01 00:02:65
  TRACK 04 AUDIO
    TITLE "3:cjc105_4492"
    INDEX 01 00:03:37
  TRACK 05 AUDIO
    TITLE "2:cjc105_4493"
    INDEX 01 00:04:33
  TRACK 06 AUDIO
    TITLE "3:cjc105_4494"
    INDEX 01 00:05:57
  TRACK 07 AUDIO
    TITLE "2:cjc105_4495"
    INDEX 01 00:06:61
  TRACK 08 AUDIO
    TITLE "3:cjc105_4496"
    INDEX 01 00:08:13
  TRACK 09 AUDIO
    TITLE "2:cjc105_4497"
    INDEX 01 00:09:24
  TRACK 10 AUDIO
    TITLE "3:cjc105_4498"
    INDEX 01 00:10:29
  TRACK 11 AUDIO
    TITLE "2:cjc105_4499"
    INDEX 01 00:11:33
  TRACK 12 AUDIO
    TITLE "3:cjc105_4500"
    INDEX 01 00:12:38
  TRACK 13 AUDIO
    TITLE "2:cjc105_4501"
    INDEX 01 00:13:39
  TRACK 14 AUDIO
    TITLE "3:cjc105_4502"
    INDEX 01 00:15:34
  TRACK 15 AUDIO
    TITLE "2:cjc105_4503"
    INDEX 01 00:16:38
  TRACK 16 AUDIO
    TITLE "3:cjc105_4504"
    INDEX 01 00:18:15
  TRACK 17 AUDIO
    TITLE "2:cjc105_4505"
    INDEX 01 00:19:16
  TRACK 18 AUDIO
    TITLE "3:cjc105_4506"
    INDEX 01 00:20:39
  TRACK 19 AUDIO
    TITLE "2:cjc105_4507"
    INDEX 01 00:21:49
  TRACK 20 AUDIO
    TITLE "3:cjc105_4508"
    INDEX 01 00:23:03
  TRACK 21 AUDIO
    TITLE "2:cjc105_4509"
    INDEX 01 00:24:29
  TRACK 22 AUDIO
    TITLE "3:cjc105_4510"
    INDEX 01 00:26:18
  TRACK 23 AUDIO
    TITLE "2:cjc105_4511"
    INDEX 01 00:27:53
  TRACK 24 AUDIO
    TITLE "3:cjc105_4512"
    INDEX 01 00:29:09
  TRACK 25 AUDIO
    TITLE "2:cjc105_4513"
    INDEX 01 00:30:14
  TRACK 26 AUDIO
    TITLE "3:cjc105_4514"
    INDEX 01 00:33:30
  TRACK 27 AUDIO
    TITLE "2:cjc105_4515"
    INDEX 01 00:34:34
  TRACK 28 AUDIO
    TITLE "3:cjc105_4516"
    INDEX 01 00:36:07
  TRACK 29 AUDIO
    TITLE "2:cjc105_4517"
    INDEX 01 00:37:12
  TRACK 30 AUDIO
    TITLE "3:cjc105_4518"
    INDEX 01 00:39:29
  TRACK 31 AUDIO
    TITLE "2:cjc105_4519"
    INDEX 01 00:40:30
  TRACK 32 AUDIO
    TITLE "3:cjc105_4520"
    INDEX 01 00:41:47
  TRACK 33 AUDIO
    TITLE "2:cjc105_4521"
    INDEX 01 00:43:07
  TRACK 34 AUDIO
    TITLE "3:cjc105_4522"
    INDEX 01 00:47:09
  TRACK 35 AUDIO
    TITLE "2:cjc105_4523"
    INDEX 01 00:48:14
  TRACK 36 AUDIO
    TITLE "3:cjc105_4524"
    INDEX 01 00:49:12
  TRACK 37 AUDIO
    TITLE "2:cjc105_4525"
    INDEX 01 00:50:23
  TRACK 38 AUDIO
    TITLE "3:cjc105_4526"
    INDEX 01 00:51:69
  TRACK 39 AUDIO
    TITLE "2:cjc105_4527"
    INDEX 01 00:53:00
  TRACK 40 AUDIO
    TITLE "3:cjc105_4528"
    INDEX 01 00:54:74
  TRACK 41 AUDIO
    TITLE "2:cjc105_4529"
    INDEX 01 00:56:02
  TRACK 42 AUDIO
    TITLE "3:cjc105_4530"
    INDEX 01 00:57:31
  TRACK 43 AUDIO
    TITLE "2:cjc105_4531"
    INDEX 01 00:58:34
  TRACK 44 AUDIO
    TITLE "3:cjc105_4532"
    INDEX 01 00:59:45
  TRACK 45 AUDIO
    TITLE "2:cjc105_4533"
    INDEX 01 01:00:53
  TRACK 46 AUDIO
    TITLE "3:cjc105_4534"
    INDEX 01 01:02:16
  TRACK 47 AUDIO
    TITLE "2:cjc105_4535"
    INDEX 01 01:03:14
  TRACK 48 AUDIO
    TITLE "3:cjc105_4536"
    INDEX 01 01:05:09
  TRACK 49 AUDIO
    TITLE "2:cjc105_4537"
    INDEX 01 01:06:16
  TRACK 50 AUDIO
    TITLE "3:cjc105_4538"
    INDEX 01 01:07:31
  TRACK 51 AUDIO
    TITLE "2:cjc105_4539"
    INDEX 01 01:08:44
  TRACK 52 AUDIO
    TITLE "3:cjc105_4540"
    INDEX 01 01:09:63
  TRACK 53 AUDIO
    TITLE "2:cjc105_4541"
    INDEX 01 01:10:63
  TRACK 54 AUDIO
    TITLE "3:cjc105_4542"
    INDEX 01 01:12:17
  TRACK 55 AUDIO
    TITLE "2:cjc105_4543"
    INDEX 01 01:13:14
  TRACK 56 AUDIO
    TITLE "3:cjc105_4544"
    INDEX 01 01:14:49
  TRACK 57 AUDIO
    TITLE "2:cjc105_4545"
    INDEX 01 01:15:64
  TRACK 58 AUDIO
    TITLE "3:cjc105_4546"
    INDEX 01 01:17:02
  TRACK 59 AUDIO
    TITLE "2:cjc105_4547"
    INDEX 01 01:18:13
  TRACK 60 AUDIO
    TITLE "3:cjc105_4548"
    INDEX 01 01:19:66
  TRACK 61 AUDIO
    TITLE "2:cjc105_4549"
    INDEX 01 01:20:59
  TRACK 62 AUDIO
    TITLE "3:cjc105_4550"
    INDEX 01 01:22:05
  TRACK 63 AUDIO
    TITLE "2:cjc105_4551"
    INDEX 01 01:23:24
  TRACK 64 AUDIO
    TITLE "3:cjc105_4552"
    INDEX 01 01:24:57
  TRACK 65 AUDIO
    TITLE "2:cjc105_4553"
    INDEX 01 01:25:68
  TRACK 66 AUDIO
    TITLE "3:cjc105_4554"
    INDEX 01 01:27:57
  TRACK 67 AUDIO
    TITLE "2:cjc105_4555"
    INDEX 01 01:28:61
  TRACK 68 AUDIO
    TITLE "3:cjc105_4556"
    INDEX 01 01:30:09
  TRACK 69 AUDIO
    TITLE "2:cjc105_4557"
    INDEX 01 01:31:22
  TRACK 70 AUDIO
    TITLE "3:cjc105_4558"
    INDEX 01 01:33:07
  TRACK 71 AUDIO
    TITLE "2:cjc105_4559"
    INDEX 01 01:34:20
  TRACK 72 AUDIO
    TITLE "3:cjc105_4560"
    INDEX 01 01:36:01
  TRACK 73 AUDIO
    TITLE "2:cjc105_4561"
    INDEX 01 01:37:34
  TRACK 74 AUDIO
    TITLE "3:cjc105_4562"
    INDEX 01 01:41:65
  TRACK 75 AUDIO
    TITLE "2:cjc105_4563"
    INDEX 01 01:43:02
  TRACK 76 AUDIO
    TITLE "3:cjc105_4564"
    INDEX 01 01:44:11
  TRACK 77 AUDIO
    TITLE "2:cjc105_4565"
    INDEX 01 01:45:18
  TRACK 78 AUDIO
    TITLE "3:cjc105_4566"
    INDEX 01 01:47:31
  TRACK 79 AUDIO
    TITLE "2:cjc105_4567"
    INDEX 01 01:48:26
  TRACK 80 AUDIO
    TITLE "3:cjc105_4568"
    INDEX 01 01:49:59
  TRACK 81 AUDIO
    TITLE "2:cjc105_4569"
    INDEX 01 01:50:54
  TRACK 82 AUDIO
    TITLE "0:"
    INDEX 01 01:51:58
